<?xml version="1.0" encoding="UTF-8" standalone="no"?>
<!-- Created with Inkscape (http://www.inkscape.org/) -->

<svg
   width="150"
   height="150"
   viewBox="0 0 39.6875 39.687499"
   version="1.1"
   id="svg1"
   inkscape:version="1.3 (0e150ed6c4, 2023-07-21)"
   sodipodi:docname="letterZ.svg"
   xmlns:inkscape="http://www.inkscape.org/namespaces/inkscape"
   xmlns:sodipodi="http://sodipodi.sourceforge.net/DTD/sodipodi-0.dtd"
   xmlns="http://www.w3.org/2000/svg"
   xmlns:svg="http://www.w3.org/2000/svg">
  <sodipodi:namedview
     id="namedview1"
     pagecolor="#ffffff"
     bordercolor="#000000"
     borderopacity="0.25"
     inkscape:showpageshadow="2"
     inkscape:pageopacity="0.0"
     inkscape:pagecheckerboard="0"
     inkscape:deskcolor="#d1d1d1"
     inkscape:document-units="mm"
     inkscape:zoom="2.8044052"
     inkscape:cx="184.17453"
     inkscape:cy="160.99671"
     inkscape:window-width="1920"
     inkscape:window-height="1001"
     inkscape:window-x="-9"
     inkscape:window-y="-9"
     inkscape:window-maximized="1"
     inkscape:current-layer="layer1"
     inkscape:clip-to-page="false" />
  <defs
     id="defs1">
    <rect
       x="377.97678"
       y="176.86459"
       width="412.20862"
       height="677.50555"
       id="rect6" />
    <rect
       x="586.22058"
       y="271.0022"
       width="165.45398"
       height="492.08295"
       id="rect5" />
    <rect
       x="377.97678"
       y="316.64468"
       width="132.64845"
       height="326.62897"
       id="rect2" />
  </defs>
  <g
     inkscape:label="Katman 1"
     inkscape:groupmode="layer"
     id="layer1">
    <text
       xml:space="preserve"
       style="font-style:normal;font-variant:normal;font-weight:normal;font-stretch:normal;font-size:55.6195px;line-height:70.6365px;font-family:Impact;-inkscape-font-specification:Impact;stroke-width:0.289684;fill:#8080ff"
       x="7.8736882"
       y="39.665619"
       id="text6"
       transform="scale(1.0948673,0.91335271)"><tspan
         sodipodi:role="line"
         id="tspan6"
         style="font-style:normal;font-variant:normal;font-weight:normal;font-stretch:normal;font-family:Impact;-inkscape-font-specification:Impact;stroke-width:0.289684;fill:#8080ff"
         x="7.8736882"
         y="39.665619">z</tspan></text>
    <path
       style="fill:#5555ff;fill-opacity:1;fill-rule:nonzero;stroke:none;stroke-width:0.264583"
       id="path1"
       d="m 35.837317,25.452903 c 1.018942,0.469069 1.912737,0.300016 2.960127,0.12919 0.437306,-0.08297 0.880538,-8.47e-4 1.32112,-0.02207 0.1871,-0.009 0.372798,-0.03705 0.559205,-0.05551 0.232494,-0.02181 0.450011,-0.112475 0.679095,-0.149124 0.283697,-0.07284 -0.746432,-4.084921 -1.030129,-4.01208 v 0 c -0.25415,-0.03757 -0.498784,-0.124847 -0.755671,-0.149124 -0.195908,-0.01846 -0.391152,-0.04627 -0.587711,-0.05551 -0.444386,-0.02089 -0.891093,0.06034 -1.332452,-0.02207 -0.966004,-0.145377 -1.989069,-0.372223 -2.893785,0.12919 -0.297487,0.07638 0.782714,4.28349 1.080201,4.207108 z" />
    <circle
       id="path2"
       style="fill:#000000;stroke:#000000;stroke-width:0.264583"
       cx="63.510231"
       cy="43.896774"
       r="0.01777206" />
    <path
       style="fill:#5555ff;fill-opacity:1;fill-rule:nonzero;stroke:none;stroke-width:0.264583"
       id="path3"
       d="M 5.1135359,13.057805 C 4.9874548,12.944976 4.8784769,12.809458 4.7352928,12.71932 4.2666224,12.424278 3.6635951,12.241719 3.1420151,12.094046 2.4735128,11.904775 1.7808929,11.753255 1.0923786,11.658738 0.73690077,11.60994 0.37820626,11.588447 0.02112012,11.553301 -1.2438629,11.50395 -0.62628311,11.508319 -1.8315721,11.534682 -2.1905612,11.415118 -3.8814533,16.49199 -3.5224643,16.611554 v 0 c 1.0335861,0.217112 0.4893736,0.112936 1.6337916,0.306439 0.98568927,0.117833 1.95998539,0.214161 2.953481,0.231751 0.4747553,0.0084 1.1080392,0.01048 1.5871276,-0.04054 0.2109044,-0.02245 0.4184036,-0.06984 0.6276057,-0.104766 0.2790693,0.129683 2.1130635,-3.816955 1.8339943,-3.946637 z" />
    <path
       style="fill:#8080ff;fill-opacity:1;fill-rule:nonzero;stroke:none;stroke-width:0.264583"
       id="path4"
       d="m 34.83869,4.2795055 c 0.16502,-0.1123532 0.327652,-0.228304 0.495067,-0.3370602 0.693563,-0.4505515 0.63518,-0.3534333 1.338596,-0.915662 0.520541,-0.4160615 1.05514,-0.9038628 1.504632,-1.3965752 0.215599,-0.2363291 0.408083,-0.4927542 0.612124,-0.73913132 0.161021,-0.2174795 0.325475,-0.43246015 0.483066,-0.65243853 0.128704,-0.17965574 0.246026,-0.36731877 0.37569,-0.54628318 0.276183,-0.38119163 0.583377,-0.73886127 0.867082,-1.11436717 C 40.72845,-1.6763929 37.13096,-4.695781 36.917458,-4.4414 v 0 c -0.442072,0.3138426 -0.859185,0.6578428 -1.299615,0.9736722 -0.191664,0.1374402 -0.391536,0.2631866 -0.583179,0.4006564 -0.232431,0.1667293 -0.459219,0.3411905 -0.688829,0.5117859 -0.255773,0.2134663 -0.522788,0.4141409 -0.767319,0.6403989 -1.027234,0.95047827 -1.998427,2.12392064 -2.428438,3.4793858 -0.04689,0.1478135 -0.04562,0.3067732 -0.06843,0.4601598 -0.159443,0.265663 3.597601,2.5205095 3.757044,2.2548465 z" />
    <path
       style="fill:#8080ff;fill-opacity:1;fill-rule:nonzero;stroke:none;stroke-width:0.264583"
       id="path5"
       d="m 1.9834744,33.673176 c -0.1105523,0.194049 -0.2416734,0.377746 -0.3316569,0.58215 -0.3459123,0.785757 -0.5601598,1.613667 -0.74371465,2.449803 -0.28584376,1.302086 -0.37915635,1.966672 -0.4674223,3.30045 -0.0340172,0.51403 -0.0344481,1.029732 -0.0516721,1.5446 0.0294714,0.69173 0.007716,1.41659 0.19594589,2.094876 0.0350271,0.126219 0.124123,0.230709 0.18618451,0.346064 -0.0958904,0.337701 4.67993705,1.693797 4.77582765,1.356096 v 0 c 0.1870609,-0.250338 0.3991713,-0.48378 0.5611834,-0.751012 0.5991304,-0.988237 0.6086075,-1.303054 0.9636622,-2.460167 0.095527,-0.564338 0.2237862,-1.124104 0.2865816,-1.693014 0.2276633,-2.062564 0.108481,-4.265167 -0.7378706,-6.187696 -0.089983,-0.204404 -0.2211046,-0.388101 -0.3316567,-0.58215 0,-0.304437 -4.305392,-0.304437 -4.305392,0 z" />
    <circle
       id="path6"
       style="fill:#8080ff;stroke:#000000;stroke-width:0.264583"
       cx="-1.0673988"
       cy="14.543308"
       r="0.01777206" />
  </g>
</svg>
