<?xml version="1.0" encoding="UTF-8" standalone="no"?>
<!-- Created with Inkscape (http://www.inkscape.org/) -->

<svg
   width="150"
   height="150"
   viewBox="0 0 39.687499 39.6875"
   version="1.1"
   id="svg1"
   inkscape:version="1.3 (0e150ed6c4, 2023-07-21)"
   sodipodi:docname="letterA.svg"
   xmlns:inkscape="http://www.inkscape.org/namespaces/inkscape"
   xmlns:sodipodi="http://sodipodi.sourceforge.net/DTD/sodipodi-0.dtd"
   xmlns="http://www.w3.org/2000/svg"
   xmlns:svg="http://www.w3.org/2000/svg">
  <sodipodi:namedview
     id="namedview1"
     pagecolor="#ffffff"
     bordercolor="#000000"
     borderopacity="0.25"
     inkscape:showpageshadow="2"
     inkscape:pageopacity="0.0"
     inkscape:pagecheckerboard="0"
     inkscape:deskcolor="#d1d1d1"
     inkscape:document-units="mm"
     inkscape:zoom="2.8044052"
     inkscape:cx="86.64939"
     inkscape:cy="66.859097"
     inkscape:window-width="1920"
     inkscape:window-height="1001"
     inkscape:window-x="-9"
     inkscape:window-y="-9"
     inkscape:window-maximized="1"
     inkscape:current-layer="layer1" />
  <defs
     id="defs1" />
  <g
     inkscape:label="Katman 1"
     inkscape:groupmode="layer"
     id="layer1">
    <text
       xml:space="preserve"
       style="font-style:italic;font-size:43.2645px;line-height:54.9459px;font-family:Georgia;-inkscape-font-specification:'Georgia Italic';fill:#d4aa00;stroke-width:0.225336"
       x="0.94814688"
       y="34.146145"
       id="text1"
       transform="scale(1.1944757,0.8371874)"><tspan
         sodipodi:role="line"
         id="tspan1"
         style="font-style:normal;font-variant:normal;font-weight:normal;font-stretch:normal;font-family:'Sitka Text';-inkscape-font-specification:'Sitka Text';fill:#d4aa00;stroke-width:0.225336"
         x="0.94814688"
         y="34.146145">A</tspan></text>
    <path
       style="fill:#d4aa00;fill-opacity:1;fill-rule:nonzero;stroke:#d4aa00;stroke-width:0.225336"
       id="path1"
       d="m 13.682543,20.556517 c 0.116325,-0.05197 0.244681,-0.09263 0.348976,-0.155912 0.134102,-0.08137 0.246062,-0.179351 0.360299,-0.274451 0.257335,-0.214227 0.389002,-0.334765 0.529703,-0.596552 0.03913,-0.07279 0.181394,-0.207505 0.07414,-0.22749 -0.12525,-0.02334 -0.186588,0.126101 -0.279882,0.189152 -0.759536,0.151266 -1.519073,0.302532 -2.278609,0.453797 -0.235214,-0.04422 -0.463112,-0.148105 -0.705642,-0.132663 -0.08573,0.0055 -0.05945,0.122493 -0.03175,0.179613 0.06087,0.125534 0.175341,0.235979 0.285544,0.343744 0.344889,0.337258 0.546004,0.435355 0.984476,0.715479 0.571118,0.29297 0.950272,0.518607 1.626567,0.717619 0.34906,0.102717 0.708284,0.2203 1.086505,0.231819 1.460466,0.04448 2.140518,-0.112008 3.342648,-0.400257 0.129473,-0.03627 0.261137,-0.06892 0.388422,-0.108821 0.08945,-0.02804 0.184191,-0.05215 0.261032,-0.09476 0.02068,-0.01147 0.03549,-0.05405 0.0092,-0.05509 -0.519731,-0.02045 -1.041131,-5.66e-4 -1.561623,-0.006 -0.04332,-3.77e-4 -0.153017,-0.0368 -0.128921,-0.01156 0.07737,0.08102 0.204686,0.132052 0.307029,0.198077 0.654223,0.325404 1.118338,0.451045 1.921165,0.482884 0.239517,0.0095 0.481431,0.01773 0.719696,-0.0019 0.650736,-0.05352 1.333435,-0.04519 1.941071,-0.216967 0.396854,-0.112187 0.636394,-0.401072 0.954591,-0.601609 0.162251,-0.223002 0.372216,-0.431905 0.486751,-0.669007 0.09147,-0.189375 0.101556,-0.394199 0.123148,-0.593561 0.0316,-0.291852 0.009,-0.632952 -0.137236,-0.913838 -0.0263,-0.05054 -0.06509,-0.09744 -0.09763,-0.146166 -0.05603,-0.224741 -4.590771,0.330673 -4.534736,0.555415 v 0 c -0.0022,0.07869 -0.01155,0.437606 0.09246,0.485335 0.0393,0.01804 0.06142,-0.05161 0.07726,-0.08262 0.291732,-0.570964 -0.167868,0.0409 0.436026,-0.658196 1.034589,-0.634584 0.291426,-0.323862 2.032785,-0.528321 0.02516,-0.0029 -0.04686,-0.0143 -0.07114,-0.01978 -0.09662,-0.02183 -0.191307,-0.05017 -0.291389,-0.06212 -0.364933,-0.04355 -0.532426,-0.0232 -0.898524,-0.0098 -0.71714,-0.0375 -0.327394,0.01204 -1.156455,-0.191545 -0.668616,-0.0565 -1.345305,-0.04758 -2.018478,-0.06132 -0.518977,-0.01059 -1.02416,0.04434 -1.516177,0.160326 -0.136927,0.03467 -0.2742,0.06866 -0.410778,0.103996 -0.751334,0.194367 0.248428,-0.05206 1.060036,0.05864 0.02082,0.0029 0.43274,0.349211 0.497709,0.380231 0.02706,0.01292 -0.01357,-0.04489 -0.02036,-0.06734 -0.07236,-0.0934 -0.136849,-0.190018 -0.217091,-0.280202 -0.458954,-0.515819 -1.072831,-1.009827 -1.807276,-1.341177 -0.45855,-0.206879 -0.901182,-0.52044 -1.446052,-0.536289 -0.984764,-0.02864 -1.932278,0.273279 -2.898417,0.40992 -0.457519,0.278686 -0.913862,0.506447 -1.2541488,0.859148 -0.3825679,0.396525 -0.6047679,0.880463 -0.5581659,1.361578 0.01079,0.111414 0.06453,0.218714 0.0968,0.328071 -0.08377,0.211942 4.1927137,1.042348 4.2764927,0.830406 z" />
    <circle
       id="path2"
       style="fill:#000000;stroke:#ffdd55;stroke-width:0.264583"
       cx="63.117214"
       cy="3.3020964"
       r="0.012566744" />
    <ellipse
       id="path3"
       style="fill:#000000;stroke:#000000;stroke-width:0.225336"
       cx="18.117197"
       cy="19.841803"
       rx="0.012784038"
       ry="0.0089601111" />
    <path
       sodipodi:type="spiral"
       style="fill:#d4aa00;fill-rule:evenodd;stroke:#000000;stroke-width:0.264583"
       id="path4"
       sodipodi:cx="19.152159"
       sodipodi:cy="34.247456"
       sodipodi:expansion="1.2"
       sodipodi:revolution="7"
       sodipodi:radius="3.1033826"
       sodipodi:argument="-43.641319"
       sodipodi:t0="0.23999999"
       d="m 19.096908,33.690316 c 0.330912,-0.07124 0.648577,0.16839 0.713304,0.491881 0.07738,0.386719 -0.203555,0.755479 -0.582524,0.826882 -0.443879,0.08363 -0.865044,-0.239736 -0.94313,-0.675585 -0.08999,-0.502279 0.276831,-0.977031 0.770834,-1.061824 0.561824,-0.09643 1.091244,0.314759 1.182776,0.868088 0.102964,0.622434 -0.353453,1.207522 -0.967192,1.305831 -0.684038,0.10957 -1.325724,-0.39286 -1.430853,-1.068021 -0.116249,-0.746577 0.432929,-1.445731 1.170462,-1.557724 0.809999,-0.122997 1.56744,0.473621 1.686343,1.274419 0.129811,0.874257 -0.514899,1.690761 -1.37981,1.816621 -0.93931,0.136687 -1.815611,-0.556733 -1.948475,-1.48656 -0.143624,-1.005121 0.599094,-1.941921 1.594603,-2.081836 1.071658,-0.150618 2.069625,0.641959 2.216637,1.703881 0.157668,1.138889 -0.685304,2.198663 -1.81434,2.352819 -1.206787,0.164772 -2.328983,-0.729108 -2.490328,-1.925931 -0.171929,-1.275327 0.773354,-2.460537 2.038611,-2.629116 1.344485,-0.179135 2.593278,0.818025 2.769135,2.152339 0.186392,1.414242 -0.863105,2.727166 -2.267076,2.910346 -1.484577,0.193696 -2.862164,-0.90858 -3.052709,-2.382791 -0.201046,-1.55547 0.954436,-2.998235 2.49945,-3.196186 1.626905,-0.208443 3.135346,1.000661 3.340745,2.617022 0.05709,0.449239 0.01323,0.909686 -0.126497,1.340383"
       transform="matrix(0.78776505,0,0,0.67720626,-12.229043,-5.1204455)" />
    <path
       sodipodi:type="spiral"
       style="fill:#d4aa00;fill-rule:evenodd;stroke:#000000;stroke-width:0.264583"
       id="path5"
       sodipodi:cx="28.869759"
       sodipodi:cy="6.0381193"
       sodipodi:expansion="1.2"
       sodipodi:revolution="7"
       sodipodi:radius="4.0961647"
       sodipodi:argument="-43.477436"
       sodipodi:t0="0.23999999"
       d="m 28.917786,5.3007048 c 0.44626,-0.021508 0.808328,0.3589462 0.822955,0.7941414 0.01749,0.5202546 -0.42776,0.9399638 -0.936637,0.9513377 -0.596038,0.013322 -1.07485,-0.4984695 -1.082679,-1.0828553 -0.009,-0.6734559 0.570891,-1.2126938 1.23245,-1.2167328 0.752385,-0.00459 1.353258,0.6448769 1.353297,1.3851419 4.4e-5,0.8327172 -0.720305,1.496343 -1.540697,1.4921988 -0.914362,-0.00462 -1.641782,-0.7970742 -1.633291,-1.6989198 0.0094,-0.9972397 0.875095,-1.7894285 1.85964,-1.7764455 1.081282,0.014259 1.939158,0.9542944 1.92155,2.0227134 -0.01922,1.166427 -1.034604,2.0908591 -2.18801,2.0685042 -1.252621,-0.024278 -2.244433,-1.1159672 -2.21722,-2.3554157 0.02942,-1.3398155 1.198331,-2.3997941 2.52483,-2.3676181 1.427967,0.034637 2.556862,1.28165 2.519626,2.6961622 -0.03993,1.5170338 -1.365881,2.7155634 -2.869329,2.6731779 -1.606982,-0.045304 -2.875836,-1.4509882 -2.828215,-3.0442574 0.05075,-1.6977769 1.536935,-3.0376186 3.220878,-2.9846812 1.789389,0.056252 3.200857,1.6236912 3.142527,3.399128 -0.06182,1.8817896 -1.711227,3.365502 -3.578951,3.3017059 -1.974952,-0.067459 -3.531505,-1.7995152 -3.462174,-3.7602925 0.07315,-2.0688545 1.888532,-3.6988246 3.943104,-3.6238921 2.163473,0.078904 3.86742,1.9782533 3.786822,4.1273402 -0.0224,0.5972999 -0.178671,1.1874573 -0.453369,1.7182303"
       transform="translate(1.6982211,-0.09434562)" />
    <path
       sodipodi:type="spiral"
       style="fill:#d4aa00;fill-rule:evenodd;stroke:#000000;stroke-width:0.264583"
       id="path6"
       sodipodi:cx="4.3398981"
       sodipodi:cy="5.2833543"
       sodipodi:expansion="1.2"
       sodipodi:revolution="7"
       sodipodi:radius="4.6459827"
       sodipodi:argument="-42.92057"
       sodipodi:t0="0.23999999"
       d="M 4.8282008,4.6021157 C 5.2707816,4.8489267 5.3913324,5.4323011 5.1445293,5.8601032 4.8494882,6.3715197 4.1691734,6.5087304 3.6723758,6.2146248 3.0904871,5.8701451 2.9362599,5.0903253 3.2790441,4.5229483 3.6740744,3.8690935 4.5557092,3.697522 5.1951219,4.0902186 5.9223197,4.5368285 6.1115396,5.522386 5.6678099,6.2351838 5.1686625,7.0370034 4.0772396,7.2441559 3.2897984,6.7483644 2.4121614,6.1957836 2.1868094,4.9966901 2.7356149,4.1334255 3.3424711,3.1788477 4.6509233,2.9350442 5.5911231,3.5377513 6.6237024,4.1996775 6.886196,5.6190758 6.2287554,6.637262 5.5110067,7.7488484 3.979163,8.0302591 2.881992,7.3173013 1.6904424,6.543015 1.3898982,4.8973039 2.1591145,3.7201977 2.9906198,2.4477727 4.7515513,2.1278878 6.0095005,2.9540666 7.3636734,3.843442 7.7030973,5.7208851 6.8192856,7.0605462 5.8714167,8.4973037 3.8762261,8.8564572 2.4540195,7.9143723 0.93387372,6.9074114 0.5548071,4.793288 1.5557784,3.2877344 2.6224067,1.6834266 4.8566021,1.2842699 6.4462748,2.3447162 8.1354907,3.4715663 8.5549084,5.8269309 7.4344213,7.5014673 6.2468144,9.2763121 3.7692222,9.7161561 2.0091025,8.5350828 0.14793157,7.2862022 -0.31249872,4.6853596 0.92968692,2.8389603 2.2403414,0.89078823 4.9654239,0.40961637 6.8987773,1.7134229 8.9346055,3.0863359 9.4366696,5.9366171 8.0707499,7.9575791 7.6911171,8.519269 7.1868675,8.9938305 6.6041874,9.3402188" />
    <path
       sodipodi:type="spiral"
       style="fill:#aa8800;fill-rule:evenodd;stroke:#000000;stroke-width:0.264583"
       id="path8"
       sodipodi:cx="8.0193777"
       sodipodi:cy="34.530495"
       sodipodi:expansion="1.2"
       sodipodi:revolution="7"
       sodipodi:radius="3.6246402"
       sodipodi:argument="-43.086243"
       sodipodi:t0="0.23999999"
       d="m 8.3074698,33.943467 c 0.372314,0.132974 0.5401338,0.566361 0.4052643,0.927302 -0.1612299,0.431487 -0.6670676,0.624599 -1.0871856,0.462208 -0.4920755,-0.190205 -0.7110837,-0.770421 -0.5203162,-1.251112 0.2198436,-0.553956 0.876173,-0.79941 1.418716,-0.579504 0.6170287,0.250097 0.8894338,0.984123 0.6397005,1.5897 C 8.8827261,35.77327 8.0695459,36.073095 7.3998329,35.792904 6.6534092,35.48062 6.3257272,34.586931 6.6369554,33.852052 6.9811043,33.039441 7.9565696,32.68349 8.7575837,33.026296 c 0.8797179,0.376489 1.2643243,1.434921 0.8894358,2.302986 -0.409278,0.947695 -1.5518008,1.361325 -2.4877869,0.953879 -1.0164995,-0.442494 -1.4595032,-1.670175 -1.0190516,-2.674908 0.4761181,-1.086094 1.7899702,-1.558804 2.8642397,-1.084922 1.1564433,0.51013 1.6591793,1.911122 1.1514633,3.055683 -0.5445152,1.227517 -2.0335737,1.760584 -3.2491494,1.218648 -1.2992854,-0.579257 -1.8629775,-2.15727 -1.2864527,-3.444556 0.614341,-1.371724 2.2821631,-1.966324 3.6418298,-1.354857 1.4448073,0.649757 2.0705873,2.40821 1.4238383,3.840903 -0.68549,1.518514 -2.5353674,2.175738 -4.0417105,1.49338 -1.5928246,-0.721533 -2.2817468,-2.6636 -1.5634651,-4.244197 0.7578732,-1.667719 2.792873,-2.388586 4.4483078,-1.634076 1.7431788,0.794503 2.4962308,2.923153 1.7051968,4.653993 -0.219853,0.481055 -0.546808,0.9111 -0.950604,1.252609"
       transform="translate(26.888501,-14.057497)" />
    <path
       sodipodi:type="spiral"
       style="fill:#aa8800;fill-rule:evenodd;stroke:#000000;stroke-width:0.264583"
       id="path9"
       sodipodi:cx="21.416456"
       sodipodi:cy="32.360546"
       sodipodi:expansion="1.2"
       sodipodi:revolution="7"
       sodipodi:radius="5.1138458"
       sodipodi:argument="-43.460861"
       sodipodi:t0="0.23999999"
       d="m 21.491666,31.441043 c 0.557501,-0.01761 1.001589,0.46479 1.010843,1.008336 0.01106,0.649783 -0.553413,1.164483 -1.188867,1.168151 -0.744295,0.0043 -1.331395,-0.644468 -1.329075,-1.374104 0.0027,-0.840846 0.737722,-1.501964 1.563614,-1.493317 0.939279,0.0098 1.675895,0.832986 1.660627,1.757041 -0.01718,1.039462 -0.930102,1.852945 -1.954092,1.830796 -1.14128,-0.02469 -2.032903,-1.02894 -2.003644,-2.154516 0.03235,-1.244636 1.129387,-2.215593 2.358103,-2.179015 1.349442,0.04017 2.400857,1.231348 2.35677,2.564665 -0.04813,1.455625 -1.334736,2.588561 -2.774041,2.53679 -1.563114,-0.05623 -2.778581,-1.439477 -2.718964,-2.986087 0.06444,-1.671851 1.545504,-2.970809 3.200675,-2.903197 1.781779,0.07278 3.165148,1.652759 3.089399,3.41769 -0.08124,1.89285 -1.761187,3.361509 -3.637028,3.277491 -2.005019,-0.0898 -3.559812,-1.87074 -3.4674,-3.858594 0.09847,-2.118244 1.981373,-3.759984 4.082302,-3.659059 2.232487,0.107244 3.961956,2.093046 3.852406,4.308074 -0.116111,2.347713 -2.205721,4.165666 -4.535836,4.047385 -2.46389,-0.125073 -4.371057,-2.319365 -4.243941,-4.765522 0.134124,-2.580987 2.433945,-4.578076 4.997067,-4.442026 2.698978,0.14326 4.786673,2.54943 4.641596,5.230415 -0.04032,0.745132 -0.247602,1.478577 -0.601484,2.135444"
       transform="matrix(0.86670093,0,0,0.91110463,-8.9094885,7.716363)" />
    <path
       sodipodi:type="spiral"
       style="fill:#aa8800;fill-rule:evenodd;stroke:#000000;stroke-width:0.264583"
       id="path10"
       sodipodi:cx="19.718235"
       sodipodi:cy="33.492695"
       sodipodi:expansion="1.2"
       sodipodi:revolution="7"
       sodipodi:radius="3.7167861"
       sodipodi:argument="-43.564072"
       sodipodi:t0="0.23999999"
       d="m 19.703754,32.822317 c 0.401721,-0.05448 0.758893,0.261015 0.806284,0.653274 0.05665,0.468926 -0.312886,0.883292 -0.772007,0.933528 -0.537759,0.05884 -1.010778,-0.366216 -1.063737,-0.893874 -0.06103,-0.608082 0.42086,-1.141072 1.018579,-1.196664 0.679779,-0.06323 1.273948,0.476706 1.332104,1.145887 0.06542,0.752755 -0.533658,1.409216 -1.275601,1.469881 -0.826926,0.06761 -1.546716,-0.591636 -1.609848,-1.407552 -0.06981,-0.902221 0.650574,-1.686313 1.541601,-1.751876 0.978576,-0.07201 1.827883,0.710412 1.89585,1.677623 0.0742,1.055935 -0.7711,1.971323 -1.815509,2.041672 -1.134249,0.0764 -2.116539,-0.832593 -2.189252,-1.955165 -0.0786,-1.213474 0.894851,-2.263448 2.096504,-2.338509 1.293571,-0.0808 2.411975,0.957837 2.489373,2.239449 0.08301,1.374502 -1.02152,2.562052 -2.383933,2.641777 -1.456235,0.08522 -2.713617,-1.085871 -2.795661,-2.529892 -0.08743,-1.538738 1.150864,-2.866613 2.677268,-2.95097 1.621987,-0.08964 3.020989,1.216472 3.107655,2.82601 0.09186,1.705951 -1.282676,3.176696 -2.976068,3.265667 -1.790612,0.09408 -3.333692,-1.349454 -3.424965,-3.127398 -0.0963,-1.875945 1.416786,-3.491934 3.279959,-3.585508 1.961928,-0.09853 3.651385,1.484655 3.747258,3.433712 0.02665,0.541706 -0.06828,1.087465 -0.274933,1.58884"
       transform="matrix(0.74150355,0,0,0.74345097,8.0625933,9.8260159)" />
    <path
       sodipodi:type="spiral"
       style="fill:#d4aa00;fill-rule:evenodd;stroke:#000000;stroke-width:0.264583"
       id="path7"
       sodipodi:cx="35.945679"
       sodipodi:cy="37.455208"
       sodipodi:expansion="1.2"
       sodipodi:revolution="7"
       sodipodi:radius="2.9140425"
       sodipodi:argument="-43.475197"
       sodipodi:t0="0.23999999"
       d="m 35.981021,36.930683 c 0.317506,-0.01459 0.574477,0.256644 0.584189,0.566268 0.01161,0.37014 -0.305808,0.668014 -0.667844,0.675295 -0.424046,0.0085 -0.763861,-0.356326 -0.768499,-0.772074 -0.0053,-0.479115 0.408067,-0.861808 0.87871,-0.863627 0.535258,-0.0021 0.961688,0.460924 0.960537,0.987553 -0.0013,0.5924 -0.514813,1.06336 -1.098438,1.059105 -0.650475,-0.0047 -1.166703,-0.569659 -1.159227,-1.211223 0.0083,-0.709428 0.625399,-1.271616 1.325789,-1.260812 0.769208,0.01187 1.378008,0.68198 1.36378,1.442031 -0.01553,0.829773 -0.739354,1.485802 -1.559858,1.468061 -0.891083,-0.01927 -1.594925,-0.797481 -1.573591,-1.679189 0.02306,-0.953105 0.856323,-1.705318 1.79995,-1.680315 1.015809,0.02692 1.816924,0.915847 1.788182,1.922079 -0.03083,1.079163 -0.976022,1.929692 -2.045516,1.897144 -1.143144,-0.03479 -2.043575,-1.036823 -2.007159,-2.170208 0.03881,-1.207727 1.098224,-2.158531 2.296106,-2.118188 1.272892,0.04287 2.274522,1.160202 2.230197,2.423165 -0.04698,1.338617 -1.222738,2.391511 -2.551346,2.343151 -1.404885,-0.05114 -2.509467,-1.285811 -2.457021,-2.680609 0.05534,-1.471678 1.349405,-2.628356 2.81092,-2.571776 1.538981,0.05958 2.748153,1.413501 2.687392,2.942246 -0.01689,0.424887 -0.128999,0.844479 -0.325266,1.221637" />
  </g>
</svg>
