<?xml version="1.0" encoding="UTF-8" standalone="no"?>
<!-- Created with Inkscape (http://www.inkscape.org/) -->

<svg
   width="150"
   height="150"
   viewBox="0 0 39.687499 39.6875"
   version="1.1"
   id="svg1"
   inkscape:version="1.3 (0e150ed6c4, 2023-07-21)"
   sodipodi:docname="letterS.svg"
   xmlns:inkscape="http://www.inkscape.org/namespaces/inkscape"
   xmlns:sodipodi="http://sodipodi.sourceforge.net/DTD/sodipodi-0.dtd"
   xmlns="http://www.w3.org/2000/svg"
   xmlns:svg="http://www.w3.org/2000/svg">
  <sodipodi:namedview
     id="namedview1"
     pagecolor="#ffffff"
     bordercolor="#000000"
     borderopacity="0.25"
     inkscape:showpageshadow="2"
     inkscape:pageopacity="0.0"
     inkscape:pagecheckerboard="0"
     inkscape:deskcolor="#d1d1d1"
     inkscape:document-units="mm"
     inkscape:zoom="3.9660279"
     inkscape:cx="32.400176"
     inkscape:cy="64.169997"
     inkscape:window-width="1920"
     inkscape:window-height="1001"
     inkscape:window-x="-9"
     inkscape:window-y="-9"
     inkscape:window-maximized="1"
     inkscape:current-layer="layer1" />
  <defs
     id="defs1" />
  <g
     inkscape:label="Katman 1"
     inkscape:groupmode="layer"
     id="layer1">
    <text
       xml:space="preserve"
       style="font-style:normal;font-variant:normal;font-weight:normal;font-stretch:normal;font-size:41.7788px;line-height:53.0591px;font-family:'Comic Sans MS';-inkscape-font-specification:'Comic Sans MS';fill:#5fd35f;stroke-width:0.217598"
       x="-0.065919861"
       y="39.87199"
       id="text1"
       transform="scale(1.352292,0.73948526)"><tspan
         sodipodi:role="line"
         id="tspan1"
         style="font-style:normal;font-variant:normal;font-weight:normal;font-stretch:normal;font-family:'Comic Sans MS';-inkscape-font-specification:'Comic Sans MS';fill:#5fd35f;stroke-width:0.217598"
         x="-0.065919861"
         y="39.87199">S</tspan></text>
    <path
       style="fill:none;stroke:#000000;stroke-width:0.264583px;stroke-linecap:butt;stroke-linejoin:miter;stroke-opacity:1"
       d="m 31.771791,9.940151 c 0.109709,0.037471 0.129571,0.146248 0.200138,0.216815 0.07221,0.07221 0.195469,0.106075 0.283528,0.150103 0.346115,0.173057 0.847135,0.487113 1.150789,0.183459"
       id="path3" />
    <path
       style="fill:none;stroke:#000000;stroke-width:0.264583px;stroke-linecap:butt;stroke-linejoin:miter;stroke-opacity:1"
       d="m 32.455593,9.2063146 c 0.355412,0.046571 0.09568,-0.2501718 -0.06671,-0.2501718 -0.138321,0 -0.08615,0.3152913 -0.03336,0.300206 0.397764,-0.1136467 -0.18633,-0.016679 0.200139,-0.016679 0.109519,0 -0.09746,-0.3926308 -0.216816,-0.2334935 -0.02955,0.039397 0.02154,0.263615 0.116745,0.2001375 0.07536,-0.050238 -0.0682,-0.2320028 -0.100068,-0.2001375 -0.04322,0.043221 0.09039,0.204287 0.100068,0.2001375 0.15431,-0.066133 0.03555,-0.1573453 -0.01667,-0.1834592 -0.114675,-0.057338 -0.03483,0.1628561 0.01667,0.1834592 0.252971,0.1011878 0.03336,-0.3109746 0.03336,-0.1501032"
       id="path4" />
    <path
       style="fill:#aa0000;fill-opacity:1;stroke-width:0.274637"
       d="m 33.022651,14.559987 1.384281,-1.717846"
       id="path7" />
    <path
       style="fill:none;stroke:#aa0000;stroke-width:0.264583px;stroke-linecap:butt;stroke-linejoin:miter;stroke-opacity:1"
       d="m 32.989295,10.540563 c -7.94e-4,0.0027 -0.07241,-0.07023 -0.05004,-0.100069 0.094,-0.125327 0.234347,-0.279145 0.416952,-0.233493 0.03428,0.0086 0.07693,0.05514 0.100071,0.06671 0.196175,0.09809 0.421984,0.175735 0.633767,0.233494 0.39447,0.107583 1.196631,0.09177 1.40096,-0.316884"
       id="path8" />
    <path
       style="fill:none;stroke:#aa0000;stroke-width:0.264583px;stroke-linecap:butt;stroke-linejoin:miter;stroke-opacity:1"
       d="m 33.189431,10.590597 c 0.0423,-0.111591 -0.03526,-0.556085 0.08339,-0.200137"
       id="path9" />
    <path
       style="fill:none;stroke:#502d16;stroke-width:0.264583px;stroke-linecap:butt;stroke-linejoin:miter;stroke-opacity:1"
       d="m 33.022651,10.607275 c 0.0094,-0.181495 0.01323,-0.136872 -0.06672,-0.216815"
       id="path10" />
    <path
       style="fill:#502d16;stroke:#502d16;stroke-width:0.264583px;stroke-linecap:butt;stroke-linejoin:miter;stroke-opacity:1"
       d="m 7.3383666,26.751682 c 0.2157192,-0.308811 0.6509006,-0.466728 1.0006864,-0.266851 0.184781,0.10559 0.4486132,0.442821 0.6004118,0.533702 0.091122,0.05455 -0.071274,0.368363 0.2668498,0.667123 2.4780284,2.189544 -0.5894204,0.457835 -2.0680852,-0.133424 -0.1460045,-0.05838 -0.032602,-0.313489 -0.066713,-0.466987 -0.063573,-0.286078 -0.2687526,-0.0122 0.2668502,-0.333563 z"
       id="path15"
       sodipodi:nodetypes="csssssc" />
    <path
       style="fill:#a0a0a0;stroke:none;stroke-width:0.252141"
       d=""
       id="path16"
       transform="scale(0.26458333)" />
    <path
       style="fill:#a0a0a0;stroke:#502d16;stroke-width:0.252141"
       d="m 80.370086,113.31101 c -0.748148,-0.28873 -0.855743,-0.69992 -0.409739,-1.56589 0.64287,-1.24822 1.380984,-1.71604 4.116389,-2.60904 2.402998,-0.78448 3.184608,-0.92187 5.685619,-0.99941 2.365903,-0.0733 3.178091,-0.20419 4.412475,-0.71083 1.729211,-0.70974 1.931509,-0.62498 2.374921,0.99498 0.244268,0.89241 0.21879,1.05596 -0.221223,1.42011 -0.273506,0.22635 -0.926709,0.48852 -1.451562,0.58261 -0.524853,0.0941 -2.826428,0.8063 -5.114611,1.5827 -3.616274,1.22705 -4.457094,1.42216 -6.429607,1.49201 -1.2481,0.0442 -2.581298,-0.0401 -2.962662,-0.18724 z"
       id="path17"
       transform="scale(0.26458333)" />
    <path
       style="fill:#a0a0a0;stroke:none;stroke-width:0.252141"
       d=""
       id="path19"
       transform="scale(0.26458333)" />
    <path
       style="fill:#502d16;stroke:none;stroke-width:0.252141"
       d="m 80.811333,113.12487 c -0.612983,-0.14926 -0.744348,-0.30195 -0.692743,-0.8052 0.204039,-1.98978 5.577424,-3.9857 10.814877,-4.01713 0.713451,-0.004 2.068311,-0.24597 3.0108,-0.53707 1.640344,-0.50665 1.727731,-0.50998 2.043691,-0.0779 0.387446,0.52986 0.438681,1.77098 0.0822,1.9913 -0.136329,0.0843 -2.584968,0.88331 -5.441421,1.77567 -5.289432,1.65243 -7.998145,2.11328 -9.817408,1.67031 z"
       id="path20"
       transform="scale(0.26458333)" />
    <path
       style="fill:#502d16;stroke:none;stroke-width:0.252141"
       d="m 68.860107,70.223974 c -0.610029,-0.283704 -1.041124,-0.583846 -0.957988,-0.666981 0.252644,-0.252644 4.253357,-1.879297 5.597112,-2.275734 2.603598,-0.768118 6.233107,0.01854 8.02777,1.739927 l 1.049322,1.006481 -0.630353,0.268734 c -0.360288,0.153599 -3.06095,0.30615 -6.303536,0.356067 -5.289713,0.08143 -5.748154,0.05247 -6.782327,-0.428494 z"
       id="path21"
       transform="scale(0.26458333)" />
    <path
       style="fill:#502d16;stroke:none;stroke-width:0.252141"
       d="m 34.606413,45.346485 c -0.866736,-0.354616 -1.575884,-0.726431 -1.575884,-0.826257 0,-0.915972 9.362761,-6.501346 11.643911,-6.946199 0.371666,-0.07248 0.825521,-0.27735 1.008566,-0.455268 0.389588,-0.378676 2.890153,-1.440746 3.392129,-1.440746 0.456566,0 0.443774,1.105746 -0.0309,2.670447 -0.206515,0.68076 -0.376711,1.595713 -0.378212,2.03323 -0.0022,0.632515 -0.325579,1.128487 -1.578613,2.420921 -0.866736,0.893989 -2.199934,1.981618 -2.962662,2.416952 -1.362283,0.777536 -1.444676,0.791341 -4.664617,0.781596 -2.923653,-0.0088 -3.44812,-0.07959 -4.853723,-0.654676 z"
       id="path22"
       transform="scale(0.26458333)" />
    <path
       style="fill:#502d16;stroke:#502d16;stroke-width:0.264583px;stroke-linecap:butt;stroke-linejoin:miter;stroke-opacity:1"
       d="m 34.290185,19.346603 c -0.04923,0.282668 0.268692,1.198983 0,1.467673"
       id="path23" />
    <path
       style="fill:#502d16;stroke:none;stroke-width:0.0667123"
       d="m 34.736902,23.781943 c -0.149834,-0.213237 -0.215696,-0.470861 -0.34304,-1.341774 -0.137867,-0.942868 -0.135882,-1.61479 0.0054,-1.830416 0.09026,-0.137752 0.100963,-0.266468 0.06205,-0.746048 l -0.04703,-0.579574 0.145942,0.131305 c 0.08027,0.07222 0.312777,0.363964 0.516686,0.648326 0.203912,0.284361 0.397042,0.517021 0.429181,0.517021 0.03214,0 0.105341,0.112266 0.162673,0.24948 0.120023,0.287257 0.08436,0.892315 -0.08006,1.358342 -0.0548,0.155305 -0.08202,0.337849 -0.0605,0.405654 0.02677,0.08436 -0.04608,0.220077 -0.230725,0.429851 -0.153458,0.174339 -0.307435,0.439634 -0.356986,0.615073 l -0.08713,0.308504 z"
       id="path24" />
    <path
       style="fill:#5fd35f;stroke:#502d16;stroke-width:0.264583px;stroke-linecap:butt;stroke-linejoin:miter;stroke-opacity:1"
       d="M 3.1354839,9.0728894 C 2.7058752,8.4793189 2.588863,7.9042238 2.5350721,7.2049417 2.4736809,6.406856 2.1405551,5.3979487 2.8019219,4.7365819 3.3177361,4.220768 4.5612364,4.4614139 5.2035691,4.4030198 6.0629177,4.3248974 6.9380795,4.1361783 7.6719286,3.6691831 8.311961,3.2618899 8.8109614,2.3662857 9.0728894,1.6678106 9.1222723,1.5361232 9.1787323,1.405447 9.2063143,1.267536 c 0.017444,-0.087222 -0.08895,-0.2668496 0,-0.2668496 0.2705306,0 0.1035497,0.5316731 0.1334249,0.800549 C 9.4944609,3.1937306 9.1831222,4.3145474 7.8053535,5.0034316 6.9021467,5.4550352 5.9734132,5.0444643 5.0701442,5.2702814 4.9175963,5.3084184 4.8477693,5.4926563 4.7365819,5.6038434 4.4887575,5.8516681 3.7665662,6.3826744 3.6691831,6.8046671 c -0.02168,0.093949 -0.1063127,0.8224848 -0.066712,1.0006864 0.044958,0.2023105 0.2901601,0.3834019 0.3335621,0.6004118 0.047284,0.2364187 0.1131316,0.9542671 -0.066712,1.134111 -0.033081,0.033081 -0.286698,0 -0.3335621,0"
       id="path1" />
    <path
       style="fill:#37c837;stroke:#502d16;stroke-width:0.264583px;stroke-linecap:butt;stroke-linejoin:miter;stroke-opacity:1"
       d="m 8.6059025,36.424983 c 0.08895,-0.04448 0.1965288,-0.0631 0.2668497,-0.133424 0.091687,-0.09169 0.089496,-0.265948 0.2001372,-0.333563 1.1147046,-0.681209 2.6287566,-0.508338 3.8693206,-0.466987 0.43802,0.01461 1.625923,0.287793 2.068085,0.06671 0.198283,-0.09914 0.604578,-0.860583 0.733837,-1.067397 0.506156,-0.809853 -0.2958,0.229086 0.200137,-0.266851 0.01572,-0.01572 -0.0022,-0.08884 0,-0.06671 0.05339,0.533913 0.575318,2.370433 0,2.801921 -0.659652,0.494739 -3.241455,0.316664 -4.069458,0.333563 -0.273181,0.0056 -3.240792,0.253984 -3.8026078,0.06671 -0.1075705,-0.03586 -0.042115,-0.222874 -0.066713,-0.333563 -0.1497904,-0.674057 -0.038202,-0.600411 0.6004118,-0.600411 z"
       id="path2" />
    <path
       style="fill:#5fd35f;stroke:#502d16;stroke-width:0.264583px;stroke-linecap:butt;stroke-linejoin:miter;stroke-opacity:1"
       d="m 28.352779,2.8019219 c 1.190217,-0.4516633 2.533965,-0.4807733 3.735895,0 1.100881,0.4403513 1.74661,2.469521 2.468362,3.335621 0.314362,0.3772345 0.88674,0.822097 1.334248,0.9339739 0.208018,0.052005 0.793229,-0.6524839 0.867262,-0.800549 0.107469,-0.2149417 0.200136,-0.7254928 0.200136,-0.9339741 0,-0.1185598 -1.631346,-0.2324574 -1.734523,-0.2668495 C 35.129316,5.0385302 35.011942,3.7602374 34.757172,3.3356211 34.706007,3.2503443 34.571246,3.2599997 34.490324,3.2021962 33.462118,2.467765 32.041285,1.9282194 30.82114,2.3349348 c -0.209449,0.069816 -0.412758,-0.054229 -0.533699,0.066712"
       id="path5" />
    <path
       style="fill:#37c837;stroke:#502d16;stroke-width:0.264583px;stroke-linecap:butt;stroke-linejoin:miter;stroke-opacity:1"
       d="m 3.9360329,17.478655 c 1.0426829,-0.670296 0.6337914,-0.741677 1.6010982,-0.400275 0.8203928,0.289551 1.1847727,1.155429 1.8679478,1.667811 0.3746161,0.280962 0.6992511,0.266849 1.1341113,0.266849 0.08895,0 0.2039524,0.0629 0.2668497,0 0.044475,-0.04447 0.1010645,-0.187358 0.1334246,-0.133424 0.082823,0.138038 0.4109522,1.49569 0.3335624,1.534385 -0.1908009,0.0954 -0.8398307,-0.0082 -1.0006865,-0.06671 C 7.8951351,20.210123 7.0235111,19.765584 6.7379548,19.480028 6.3441981,19.086271 6.1203109,18.282207 5.670556,18.012354 5.384951,17.840991 4.9769857,17.810413 4.6698696,17.678792 4.2725273,17.508502 4.4650054,17.478655 3.9360329,17.478655 Z"
       id="path6" />
    <path
       style="fill:#5fd35f;stroke:#502d16;stroke-width:0.264583px;stroke-linecap:butt;stroke-linejoin:miter;stroke-opacity:1"
       d="m 30.087302,37.025394 c -0.07529,-2.516179 -0.120433,-3.326521 2.068087,-4.603157 0.417198,-0.243366 0.727885,-0.617276 1.13411,-0.867262 0.554884,-0.341466 1.130432,-0.663445 1.601097,-1.13411 0.06651,-0.06651 0.639873,-1.104027 0.667125,-1.267536 0.0078,-0.04685 0.04623,-0.600411 0.133425,-0.600411 0.145063,0 0.147015,2.281192 -0.06671,2.601782 -0.378222,0.567333 -0.660414,1.141482 -1.13411,1.667812 -0.640446,0.711605 -1.476865,1.262346 -2.068087,2.001372 -0.792498,0.990624 -0.17694,2.088406 -0.466987,2.668497 -0.312909,0.625819 -1.699845,0.301527 -2.001372,0 -0.114474,-0.114474 0.101674,-0.308239 0.133424,-0.466987 z"
       id="path12" />
  </g>
</svg>
