<?xml version="1.0" encoding="UTF-8" standalone="no"?>
<!-- Created with Inkscape (http://www.inkscape.org/) -->

<svg
   width="150"
   height="150"
   viewBox="0 0 39.687499 39.6875"
   version="1.1"
   id="svg1"
   inkscape:version="1.3 (0e150ed6c4, 2023-07-21)"
   sodipodi:docname="letterE.svg"
   xmlns:inkscape="http://www.inkscape.org/namespaces/inkscape"
   xmlns:sodipodi="http://sodipodi.sourceforge.net/DTD/sodipodi-0.dtd"
   xmlns="http://www.w3.org/2000/svg"
   xmlns:svg="http://www.w3.org/2000/svg">
  <sodipodi:namedview
     id="namedview1"
     pagecolor="#ffffff"
     bordercolor="#000000"
     borderopacity="0.25"
     inkscape:showpageshadow="2"
     inkscape:pageopacity="0.0"
     inkscape:pagecheckerboard="0"
     inkscape:deskcolor="#d1d1d1"
     inkscape:document-units="mm"
     inkscape:zoom="2.8044052"
     inkscape:cx="125.51681"
     inkscape:cy="26.565348"
     inkscape:window-width="1920"
     inkscape:window-height="1001"
     inkscape:window-x="-9"
     inkscape:window-y="-9"
     inkscape:window-maximized="1"
     inkscape:current-layer="layer1" />
  <defs
     id="defs1" />
  <g
     inkscape:label="Katman 1"
     inkscape:groupmode="layer"
     id="layer1">
    <path
       style="fill:#000000;fill-opacity:1;fill-rule:nonzero;stroke:none;stroke-width:0.264583"
       id="path5"
       d="M 9.2095282,9.981422 C 9.2784236,9.8850179 9.366574,9.7998025 9.4162143,9.6922099 9.4930541,9.5256645 9.537312,9.3455759 9.5846483,9.1683725 9.7418066,8.5800535 9.812498,8.0040365 9.6958498,7.4014948 9.6818137,7.3289905 9.6452795,7.2627211 9.6199943,7.1933341 9.487646,7.5240408 9.4049153,7.748611 9.1931444,8.0960237 9.0819509,8.2784383 9.0001816,8.5174973 8.8061526,8.6068939 8.4191731,8.7851902 7.929855,8.655987 7.5516969,8.852301 7.4188838,8.9212488 7.8189803,8.9871832 7.9554826,9.0485044 8.1916007,9.1545763 8.4313381,9.2524007 8.6692657,9.3543489 8.9904302,9.5091135 9.299046,9.6932069 9.6327594,9.8186427 10.709828,10.22349 11.876124,10.361396 13.019263,10.366638 c 0.584448,0.0027 1.095821,-0.05383 1.672682,-0.104396 0.221962,0.0015 0.445351,-0.02076 0.665888,0.0044 0.258118,0.02945 0.510072,0.09957 0.763065,0.158611 0.295061,0.06886 0.590249,0.138683 0.880678,0.22502 1.253802,0.372724 0.908518,0.374129 2.284866,0.696295 0.499167,0.116842 1.006435,0.195873 1.509652,0.29381 2.166055,0.166496 2.54465,0.260937 5.218633,-0.02309 0.862002,-0.09156 1.796743,-0.493689 2.499003,-0.996845 0.791819,-0.56732 1.044358,-1.0584004 1.618877,-1.8467198 C 30.56863,7.3403036 30.768612,7.3685481 30.522814,6.0146173 30.481674,5.7880114 30.263055,5.294328 30.0879,5.0756026 30.05483,5.0343066 29.968113,4.9352609 29.956326,4.9868376 c -0.03162,0.1383588 0.03693,0.2814378 0.05539,0.4221567 -0.0406,0.6565257 0.0218,0.5170996 -0.200017,1.0866882 -0.0235,0.060367 -0.04692,0.1239777 -0.09028,0.1721043 -0.07926,0.087956 -0.180888,0.1528054 -0.271333,0.229208 0.256448,-0.1694251 -2.13959,-3.7961315 -2.396035,-3.6267061 v 0 C 26.872973,3.3845673 26.677689,3.4789494 26.510819,3.6131241 26.1609,3.894482 25.862763,4.3597722 25.727024,4.7722409 25.626481,5.0777632 25.62132,5.4067787 25.568468,5.7240475 c 0.02112,0.1939456 0.07713,0.8649247 0.14923,1.16152 0.01921,0.079015 0.04084,0.1593601 0.08081,0.2301764 0.0086,0.015227 0.04737,0.022262 0.05217,0.00545 0.482487,-1.6907652 -0.60969,1.2634217 0.485663,-1.5123855 0.06336,-0.1759067 0.232696,-0.3456729 0.190077,-0.5277199 C 26.445635,4.7359913 25.35056,4.4524268 25.27378,4.4337507 24.857547,4.3325068 24.406223,4.3748227 24.006392,4.2210865 c -0.145816,-0.056066 0.305471,-0.065645 0.458207,-0.098467 -0.557822,0.032702 -1.115644,0.065404 -1.673466,0.098105 C 21.369499,4.441422 21.117367,4.4485914 19.76748,4.7740945 19.167453,4.9187816 18.137047,5.3311924 17.47797,5.208225 17.276389,5.1706147 17.09326,5.0661117 16.900905,4.9950552 16.309853,4.717049 16.025689,4.5623056 15.380312,4.3564899 14.347891,4.0272432 13.241169,3.8519258 12.156461,3.86819 11.789542,3.87369 11.42516,3.93013 11.059509,3.9611 10.769871,3.95751 10.480032,3.9616821 10.190595,3.950331 8.983886,3.9029886 8.3886333,3.7157612 6.9714834,4.028827 6.0615104,4.2298514 5.3684691,5.0182142 4.8980277,5.7488494 4.7120254,6.037727 4.6272325,6.3804019 4.4918349,6.6961781 4.3591024,7.2352248 4.2324969,7.5686856 4.2532628,8.1207098 c 0.025508,0.6781149 0.2756511,1.3295334 0.6890511,1.8607133 0,0.3017379 4.2672143,0.3017379 4.2672143,0 z" />
    <path
       style="fill:#000000;fill-opacity:1;fill-rule:nonzero;stroke:none;stroke-width:0.264583"
       id="path6"
       d="m 5.2980769,10.342856 c -0.027357,0.143093 -0.069479,0.28414 -0.082071,0.429279 -0.018053,0.208075 -0.015372,0.417723 -0.00953,0.626497 0.03536,1.263084 0.3329782,2.396089 0.6058546,3.619529 0.3738364,1.557097 0.6824416,3.138168 0.8138644,4.736371 0.023119,0.281135 0.032468,0.563234 0.048702,0.844851 -0.039854,0.730375 -0.04961,1.127735 -0.1408425,1.864354 -0.045936,0.370893 -0.1158333,0.738485 -0.1655898,1.108885 -0.069032,0.513892 -0.2643534,2.165859 -0.2936144,2.655378 -0.027722,0.463767 -0.017994,0.929013 -0.02699,1.393521 0.047875,1.119203 0.1670521,2.240198 0.4837284,3.318483 0.0022,0.0075 0.20553,0.681929 0.352365,0.784715 0.028388,0.01987 0.033628,-0.0606 0.050442,-0.0909 0.045346,-0.257124 0.039385,-0.05046 -0.027946,-0.08572 -0.021026,-0.01101 -0.013242,-0.06199 -0.03695,-0.06086 -0.050187,0.0024 -0.087283,0.05054 -0.1340178,0.06899 -0.033635,0.01328 -0.07029,0.01701 -0.1054357,0.02553 -0.074229,0.0367 -0.1484577,0.0734 -0.2226868,0.110107 -0.2944318,0.139851 -0.4983885,0.291076 -0.7402565,0.512609 -0.040374,0.03698 -0.081759,0.07371 -0.1152993,0.116983 -0.00409,0.0053 0.012554,0.01172 0.018243,0.0082 0.087823,-0.05386 0.1696212,-0.116972 0.2544318,-0.175458 0.7026849,-0.335984 0.8115633,-0.455256 2.024563,0.158546 0.3611957,0.182772 0.5500495,0.604904 0.7422989,0.961147 0.3334184,0.617828 0.073834,0.659362 0.1902111,1.224462 0.026331,0.127865 0.103452,0.239726 0.1551781,0.35959 1.0036423,0.173924 2.0095606,0.331176 3.0166496,0.483219 0.341146,0.0515 0.763216,-0.06817 1.022722,0.159181 0.197593,0.173112 -0.524439,0.03176 -0.786659,0.04764 0.750418,0.08307 1.062887,0.09622 1.797037,0.261429 0.270979,0.06098 0.535657,0.147207 0.803932,0.219163 0.263769,0.07075 0.529677,0.133651 0.792186,0.208944 0.53716,0.154069 1.096252,0.346456 1.625768,0.522623 0.427821,0.13688 1.554857,0.523172 1.995974,0.556697 1.084323,0.08241 2.595175,0.0412 3.765326,-0.04557 0.404053,-0.02996 0.808889,-0.05741 1.210234,-0.112895 0.405509,-0.05606 0.805314,-0.147617 1.207971,-0.221422 0.911173,-0.332076 1.327105,-0.443595 2.176089,-0.909566 1.02635,-0.563319 1.93512,-1.340551 2.82843,-2.088938 0.177477,-0.163053 0.367541,-0.313386 0.532432,-0.489157 0.695759,-0.741669 1.213458,-1.688796 1.283605,-2.719623 0.01513,-0.222464 -0.01503,-0.445704 -0.02252,-0.668554 -0.245976,-1.039392 -0.05041,-0.478684 -0.682133,-1.645727 -0.184174,-0.246748 -3.673711,2.357874 -3.489537,2.604622 v 0 c -0.357161,-0.851215 -0.253137,-0.480915 -0.388599,-1.086506 -0.01281,-0.06371 -0.02561,-0.127421 -0.03843,-0.191133 -0.01315,-0.02334 -0.03186,-0.04431 -0.03946,-0.06999 -0.01233,-0.04168 0.01953,-0.109614 -0.01939,-0.128947 -0.04714,-0.02342 -0.102053,0.02638 -0.15166,0.04399 -0.256973,0.09116 -0.344667,0.147463 -0.61686,0.282059 -0.442475,0.175045 -0.561732,0.236273 -1.043147,0.362471 -0.551087,0.144462 -0.837735,0.169669 -1.410716,0.277244 -0.283342,0.0532 -1.652829,0.3307 -1.88742,0.378047 -1.011478,0.328128 -1.026152,0.301696 -1.962795,0.720386 -0.206319,0.09223 -0.764252,0.136647 -0.608024,0.299945 0.247537,0.258739 0.727522,0.04043 1.060255,0.172752 0.149021,0.05926 -0.500552,0.269753 -0.462173,0.133673 -0.129228,-0.09778 -0.263567,-0.18914 -0.387685,-0.293325 C 19.53284,31.479743 19.204915,31.103651 18.62234,30.694484 17.393474,29.8314 16.013484,29.23551 14.558424,28.876561 13.428798,28.799281 12.30175,28.6567 11.169548,28.644706 c -0.537626,-0.0057 -1.075898,0.073 -1.6030066,0.178972 -1.378994,0.277228 -2.7290027,0.902113 -3.7583474,1.874335 -0.2464078,0.232733 -0.4320715,0.522343 -0.6481075,0.783513 -0.373135,0.657331 -0.7420393,1.127498 -0.802024,1.909371 -0.05944,0.774772 0.1810882,1.866609 0.9354973,2.302942 1.186724,0.686374 1.514978,0.508404 2.3833706,0.247483 0.1441897,-0.07317 0.2867078,-0.149725 0.4325694,-0.219501 0.057149,-0.02734 0.2740351,-0.126032 0.3136085,-0.09916 0.025911,0.0176 -0.030637,0.08259 -0.00146,0.09395 0.1233406,0.04798 0.2707497,-0.134732 0.3900951,-0.07393 0.3686413,-0.0973 0.2878264,-0.06343 0.7153849,-0.25133 0.1468752,-0.06455 0.2986725,-0.121354 0.4350699,-0.20582 0.1984568,-0.122893 0.3835728,-0.266835 0.5651258,-0.413554 0.174898,-0.141343 0.352187,-0.28276 0.50295,-0.449604 0.199296,-0.220557 0.361817,-0.471744 0.542725,-0.707615 0.438363,-0.835408 0.906845,-1.662993 1.188784,-2.568998 0.347963,-1.118172 0.457118,-2.28518 0.475397,-3.450992 -0.013,-0.438989 -0.01268,-0.878576 -0.03899,-1.316969 -0.04883,-0.813836 -0.154257,-1.623527 -0.207257,-2.437102 -0.07488,-1.14948 -0.06121,-1.059474 -0.05334,-2.190362 0.0025,-0.35768 0.0068,-0.715345 0.01019,-1.073017 0.03393,-0.907803 0.06447,-1.30579 0.03401,-2.221936 -0.05312,-1.59761 -0.292641,-3.185311 -0.682895,-4.734625 -0.114857,-0.401349 -0.212753,-0.807973 -0.344607,-1.20409 C 11.824917,12.028002 11.689046,11.639871 11.515954,11.268606 11.116031,10.410809 10.544451,9.58319 9.823715,8.9617345 9.6913268,8.8475827 9.5368215,8.7619312 9.393375,8.6620296 9.2745225,8.3724482 5.1792245,10.053275 5.2980769,10.342856 Z" />
    <path
       style="fill:#000000;fill-opacity:1;fill-rule:nonzero;stroke:none;stroke-width:0.264583"
       id="path7"
       d="m 12.20804,21.884751 c 0.564073,0.01082 0.654153,0.03225 1.300546,-0.07414 0.341135,-0.05615 0.668574,-0.207796 1.01417,-0.217241 0.406158,-0.0111 0.807356,0.09407 1.208844,0.156485 0.422269,0.06564 0.840702,0.154002 1.261665,0.227556 0.404661,0.07071 0.810112,0.136811 1.215168,0.205217 -0.308603,0.0012 -1.01763,0.298261 -0.925808,0.0036 0.09475,-0.304019 0.636003,-0.04237 0.951452,-0.08592 0.224692,-0.03102 0.449548,-0.07107 0.666444,-0.137436 0.147366,-0.04509 0.284699,-0.119726 0.419294,-0.194786 0.111152,-0.06198 0.192492,-0.247588 0.315514,-0.214993 0.454224,0.120349 0.83992,0.421602 1.259879,0.632403 1.066795,-0.423234 2.181307,-0.741818 3.200383,-1.2697 0.259648,-0.134498 0.381173,-0.444022 0.557819,-0.677052 0.380124,-0.501457 0.61434,-0.839274 0.803448,-1.447277 0.07546,-0.242612 0.09331,-0.499511 0.139969,-0.749267 0.101679,-0.389804 -5.410974,-1.827746 -5.512652,-1.437943 v 0 c -0.09715,0.209006 -0.218063,0.408531 -0.291442,0.627018 -0.134479,0.400411 -0.248425,1.020469 -0.176325,1.451097 0.02098,0.125327 0.05431,0.3526 0.180282,0.335893 0.995377,-0.132017 1.945486,-0.497899 2.91823,-0.746848 0.332457,0.191337 0.627119,0.674259 0.997372,0.574009 0.262476,-0.07107 -0.06695,-0.546801 -0.172851,-0.797257 -0.163932,-0.38769 -0.36655,-0.765574 -0.627604,-1.095768 -0.604508,-0.764614 -1.815372,-1.824979 -2.777451,-2.05608 -1.351878,-0.324734 -2.763294,-0.310344 -4.144941,-0.465517 -0.745361,0.106044 -1.512389,0.11058 -2.236082,0.31813 -1.592219,0.456639 -2.265326,0.991462 -3.378901,2.11318 -0.5205416,0.524348 -0.9099244,1.158915 -1.0657209,1.880624 -0.2221714,0.205012 2.6771279,3.34699 2.8992989,3.141978 z" />
    <circle
       id="path8"
       style="fill:#000000;stroke:#000000;stroke-width:0.264583"
       cx="26.228081"
       cy="-10.094981"
       r="0.012566744" />
    <rect
       style="fill:#000000;stroke:#aaccff;stroke-width:0.274637"
       id="rect1"
       width="3.6794794"
       height="3.9625158"
       x="34.719185"
       y="13.96315" />
    <rect
       style="fill:#000000;stroke:#aaccff;stroke-width:0.274637"
       id="rect2"
       width="1.698221"
       height="1.3208386"
       x="36.700443"
       y="18.491741" />
    <rect
       style="fill:#000000;stroke:#aaccff;stroke-width:0.274637"
       id="rect3"
       width="2.5473316"
       height="3.3020964"
       x="1.3208386"
       y="2.0756035" />
    <rect
       style="fill:#000000;stroke:#aaccff;stroke-width:0.274637"
       id="rect4"
       width="2.7360227"
       height="7.9250317"
       x="1.3208386"
       y="18.869122" />
    <rect
       style="fill:#000000;stroke:#aaccff;stroke-width:0.274637"
       id="rect5"
       width="8.1137228"
       height="2.9247139"
       x="24.341167"
       y="24.341167" />
    <rect
       style="fill:#000000;stroke:#aaccff;stroke-width:0.274637"
       id="rect6"
       width="3.4907875"
       height="1.9812579"
       x="33.681385"
       y="36.417408" />
    <rect
       style="fill:#000000;stroke:#aaccff;stroke-width:0.274637"
       id="rect7"
       width="4.151207"
       height="3.9625158"
       x="33.20966"
       y="2.2642946" />
    <rect
       style="fill:#000000;stroke:#aaccff;stroke-width:0.274637"
       id="rect8"
       width="2.9247139"
       height="0.94345617"
       x="9.7175989"
       y="37.926937" />
    <rect
       style="fill:#000000;stroke:#aaccff;stroke-width:0.274637"
       id="rect9"
       width="7.3589582"
       height="1.698221"
       x="15.000953"
       y="1.2264929" />
  </g>
</svg>
