<?xml version="1.0" encoding="UTF-8" standalone="no"?>
<!-- Created with Inkscape (http://www.inkscape.org/) -->

<svg
   width="150"
   height="150"
   viewBox="0 0 39.6875 39.6875"
   version="1.1"
   id="svg1"
   inkscape:version="1.3 (0e150ed6c4, 2023-07-21)"
   sodipodi:docname="letterN.svg"
   xmlns:inkscape="http://www.inkscape.org/namespaces/inkscape"
   xmlns:sodipodi="http://sodipodi.sourceforge.net/DTD/sodipodi-0.dtd"
   xmlns="http://www.w3.org/2000/svg"
   xmlns:svg="http://www.w3.org/2000/svg">
  <sodipodi:namedview
     id="namedview1"
     pagecolor="#ffffff"
     bordercolor="#000000"
     borderopacity="0.25"
     inkscape:showpageshadow="2"
     inkscape:pageopacity="0.0"
     inkscape:pagecheckerboard="0"
     inkscape:deskcolor="#d1d1d1"
     inkscape:document-units="mm"
     inkscape:zoom="3.9660278"
     inkscape:cx="42.737976"
     inkscape:cy="66.187131"
     inkscape:window-width="1920"
     inkscape:window-height="1001"
     inkscape:window-x="-9"
     inkscape:window-y="-9"
     inkscape:window-maximized="1"
     inkscape:current-layer="layer1" />
  <defs
     id="defs1" />
  <g
     inkscape:label="Katman 1"
     inkscape:groupmode="layer"
     id="layer1">
    <path
       style="fill:none;stroke:#000000;stroke-width:0.0631525px;stroke-linecap:butt;stroke-linejoin:miter;stroke-opacity:1"
       d="m 10.199632,18.161824 c 0.842263,2.363016 0.67435,5.003345 0.67435,7.50791 0,1.058806 0.07395,2.120986 0,3.176423 -0.03331,0.475459 -0.29289,0.893753 -0.421469,1.347571 -0.235281,0.830431 -0.449567,1.668426 -0.6743509,2.502639 -0.267335,0.99213 -0.260791,1.211795 -0.67435,2.021359 -0.1217904,0.23841 -0.228104,0.508182 -0.4214697,0.673788 -0.050269,0.04305 -0.2130151,0.04552 -0.1685876,0.09625 0.3903493,0.44574 1.0621453,0.347366 1.6015822,0.481275 0.737135,0.182988 7.131678,1.30836 7.333568,0.962554 0.155859,-0.266963 -0.475669,-0.350656 -0.674352,-0.577533 -0.324961,-0.371074 -0.557687,-0.888626 -0.758644,-1.347572 -1.09399,-2.498457 -3.393997,-10.562679 -1.264408,-12.994458 0.20968,-0.239434 2.89808,1.082324 3.034579,1.155063 0.65065,0.346723 1.306345,0.721712 1.854465,1.251318 0.906644,0.87602 1.959444,6.478517 2.444523,7.989186 0.123811,0.385584 0.476666,2.34164 0.927233,2.598891 0.134198,0.07662 0.827177,0 0.842937,0 1.250814,0 1.28571,-0.45452 2.444523,-1.155063 0.747792,-0.452065 1.625354,-0.879727 2.275936,-1.540084 1.010629,-1.025813 0.971996,-5.338572 1.011527,-6.737868 0.10723,-3.795887 0.01841,-6.559775 -0.674351,-10.29931 -0.186421,-1.006302 -0.550389,-2.363914 -1.517292,-2.695146 -0.68694,-0.235326 -1.426372,0.08995 -1.938757,0.577531 -2.660277,2.531475 -0.1508,8.087584 -2.360229,9.529269 -0.674128,0.439877 -1.329556,-0.631579 -1.685879,-1.058808 -0.315449,-0.378222 -0.673511,-0.720477 -0.927232,-1.155062 -0.900191,-1.541896 -1.348855,-4.187191 -2.950285,-5.101529 -1.293267,-0.738391 -2.575646,-0.01987 -3.877518,0.192511 -0.516486,0.08425 -1.176174,-0.114253 -1.348702,0.673786 -0.217066,0.991472 0.06404,2.302302 0.252882,3.272679 0.02726,0.140071 0.168587,0.241532 0.168587,0.38502 0,0.288766 -0.505764,0 -0.758645,0 -0.492617,0 -0.882944,0.288766 -1.348702,0.288766"
       id="path1" />
    <path
       style="fill:#0000ff;fill-opacity:0;stroke-width:0.0934993"
       d="M 15.763027,36.816348 C 14.882794,36.708006 12.666239,36.358403 11.337599,36.118349 10.50309,35.967572 9.6306481,35.813878 9.3988401,35.776807 c -0.231809,-0.03707 -0.4894017,-0.108913 -0.5724296,-0.15965 -0.140383,-0.08579 -0.1356259,-0.113058 0.06789,-0.389242 0.3687376,-0.5004 0.5902656,-1.109858 1.0931406,-3.007384 0.2657779,-1.002873 0.5966459,-2.146831 0.7352609,-2.542129 l 0.252027,-0.718723 -0.04416,-4.051355 c -0.02429,-2.228243 -0.06904,-4.182897 -0.09945,-4.343674 l -0.05529,-0.292321 0.580125,-0.158987 c 0.442993,-0.121404 0.666986,-0.136701 0.947583,-0.06471 0.48659,0.124842 0.58093,0.01522 0.399197,-0.463853 -0.316982,-0.835614 -0.482255,-2.603561 -0.309703,-3.312928 0.09898,-0.406909 0.291075,-0.519094 1.051918,-0.614332 0.27817,-0.03482 0.931856,-0.167804 1.452638,-0.295524 0.520781,-0.127717 1.130294,-0.232214 1.354476,-0.232214 0.902895,0 1.732586,0.507017 2.316766,1.415757 0.301018,0.468256 0.546216,0.997522 1.308659,2.82477 0.357835,0.857575 0.55237,1.177043 1.247744,2.049063 0.928775,1.164712 1.221205,1.410829 1.676303,1.410829 0.260928,0 0.380957,-0.07275 0.676145,-0.409829 0.569805,-0.650658 0.638041,-1.03324 0.716631,-4.017911 0.07014,-2.663632 0.126362,-3.103512 0.513578,-4.018087 0.245181,-0.579098 0.846278,-1.269714 1.344536,-1.54477 0.522624,-0.288508 1.192402,-0.286556 1.613708,0.0047 0.648685,0.448446 0.950153,1.183108 1.278594,3.115874 0.534191,3.143496 0.680313,5.772414 0.556341,10.00918 -0.11986,4.096195 -0.358689,5.557379 -1.028482,6.292302 -0.186368,0.204492 -0.779944,0.641866 -1.319057,0.971943 -0.539112,0.330078 -1.283663,0.808463 -1.654555,1.063082 -0.748804,0.514053 -1.293135,0.686546 -2.028469,0.642803 -0.719888,-0.04282 -0.64167,0.164124 -2.021258,-5.347872 -1.209291,-4.831651 -1.379938,-5.182312 -2.980854,-6.125422 -0.841705,-0.495853 -2.147495,-1.102254 -3.040474,-1.411976 l -0.625001,-0.216776 -0.280066,0.369963 c -1.227948,1.6221 -0.777991,6.721785 1.044358,11.836481 0.519594,1.458314 1.12679,2.550765 1.417745,2.550765 0.05201,0 0.168191,0.0636 0.258185,0.141321 0.147965,0.127796 0.09908,0.14014 -0.510726,0.12898 -0.370893,-0.0068 -0.807114,-0.02868 -0.969379,-0.04866 z"
       id="path2" />
    <path
       style="fill:#0000ff;fill-opacity:0;stroke-width:0.0934993"
       d="M 15.763027,36.816348 C 14.882794,36.708006 12.666239,36.358403 11.337599,36.118349 10.50309,35.967572 9.6306481,35.813878 9.3988401,35.776807 c -0.231809,-0.03707 -0.4894017,-0.108913 -0.5724296,-0.15965 -0.140383,-0.08579 -0.1356259,-0.113058 0.06789,-0.389242 0.3687376,-0.5004 0.5902656,-1.109858 1.0931406,-3.007384 0.2657779,-1.002873 0.5966459,-2.146831 0.7352609,-2.542129 l 0.252027,-0.718723 -0.04416,-4.051355 c -0.02429,-2.228243 -0.06904,-4.182897 -0.09945,-4.343674 l -0.05529,-0.292321 0.580125,-0.158987 c 0.442993,-0.121404 0.666986,-0.136701 0.947583,-0.06471 0.48659,0.124842 0.58093,0.01522 0.399197,-0.463853 -0.316982,-0.835614 -0.482255,-2.603561 -0.309703,-3.312928 0.09898,-0.406909 0.291075,-0.519094 1.051918,-0.614332 0.27817,-0.03482 0.931856,-0.167804 1.452638,-0.295524 0.520781,-0.127717 1.130294,-0.232214 1.354476,-0.232214 0.902895,0 1.732586,0.507017 2.316766,1.415757 0.301018,0.468256 0.546216,0.997522 1.308659,2.82477 0.357835,0.857575 0.55237,1.177043 1.247744,2.049063 0.928775,1.164712 1.221205,1.410829 1.676303,1.410829 0.260928,0 0.380957,-0.07275 0.676145,-0.409829 0.569805,-0.650658 0.638041,-1.03324 0.716631,-4.017911 0.07014,-2.663632 0.126362,-3.103512 0.513578,-4.018087 0.245181,-0.579098 0.846278,-1.269714 1.344536,-1.54477 0.522624,-0.288508 1.192402,-0.286556 1.613708,0.0047 0.648685,0.448446 0.950153,1.183108 1.278594,3.115874 0.534191,3.143496 0.680313,5.772414 0.556341,10.00918 -0.11986,4.096195 -0.358689,5.557379 -1.028482,6.292302 -0.186368,0.204492 -0.779944,0.641866 -1.319057,0.971943 -0.539112,0.330078 -1.283663,0.808463 -1.654555,1.063082 -0.748804,0.514053 -1.293135,0.686546 -2.028469,0.642803 -0.719888,-0.04282 -0.64167,0.164124 -2.021258,-5.347872 -1.209291,-4.831651 -1.379938,-5.182312 -2.980854,-6.125422 -0.841705,-0.495853 -2.147495,-1.102254 -3.040474,-1.411976 l -0.625001,-0.216776 -0.280066,0.369963 c -1.227948,1.6221 -0.777991,6.721785 1.044358,11.836481 0.519594,1.458314 1.12679,2.550765 1.417745,2.550765 0.05201,0 0.168191,0.0636 0.258185,0.141321 0.147965,0.127796 0.09908,0.14014 -0.510726,0.12898 -0.370893,-0.0068 -0.807114,-0.02868 -0.969379,-0.04866 z"
       id="path3" />
    <path
       style="fill:#916f6f;stroke:none;stroke-width:0.0900763"
       d="M 15.739441,36.745589 C 14.859208,36.637247 12.642653,36.287644 11.314013,36.04759 10.479504,35.896813 9.6070617,35.743119 9.3752537,35.706048 9.1434447,35.668978 8.885852,35.597135 8.8028241,35.546398 c -0.140383,-0.08579 -0.1356259,-0.113058 0.06789,-0.389242 0.3687376,-0.5004 0.5902656,-1.109858 1.0931406,-3.007384 0.2657783,-1.002873 0.5966463,-2.146831 0.7352613,-2.542129 l 0.252027,-0.718723 -0.04416,-4.051355 c -0.02429,-2.228243 -0.06904,-4.182897 -0.09945,-4.343674 l -0.05529,-0.292321 0.580125,-0.158987 c 0.442993,-0.121404 0.666986,-0.136701 0.947583,-0.06471 0.48659,0.124842 0.58093,0.01522 0.399197,-0.463853 -0.316982,-0.835614 -0.482255,-2.603561 -0.309703,-3.312928 0.09898,-0.406909 0.291075,-0.519094 1.051918,-0.614332 0.27817,-0.03482 0.931856,-0.167804 1.452638,-0.295524 0.520781,-0.127717 1.130294,-0.232214 1.354476,-0.232214 0.902895,0 1.732586,0.507017 2.316766,1.415757 0.301018,0.468256 0.546216,0.997522 1.308659,2.82477 0.357835,0.857575 0.55237,1.177043 1.247744,2.049063 0.928775,1.164712 1.221205,1.410829 1.676303,1.410829 0.260928,0 0.380957,-0.07275 0.676145,-0.409829 0.569805,-0.650658 0.638041,-1.03324 0.716631,-4.017911 0.07014,-2.663632 0.126362,-3.103512 0.513578,-4.018087 0.245181,-0.579098 0.846278,-1.269714 1.344536,-1.54477 0.522624,-0.288508 1.192402,-0.286556 1.613708,0.0047 0.648685,0.448446 0.950153,1.183108 1.278594,3.115874 0.534191,3.143496 0.680313,5.772414 0.556341,10.00918 -0.11986,4.096195 -0.358689,5.557379 -1.028482,6.292302 -0.186368,0.204492 -0.779944,0.641866 -1.319057,0.971943 -0.539112,0.330078 -1.283663,0.808463 -1.654555,1.063082 -0.748804,0.514053 -1.293135,0.686546 -2.028469,0.642803 -0.719888,-0.04282 -0.64167,0.164124 -2.021258,-5.347872 -1.209291,-4.831651 -1.379938,-5.182312 -2.980854,-6.125422 -0.841705,-0.495853 -2.147495,-1.102254 -3.040474,-1.411976 l -0.625001,-0.216776 -0.280066,0.369963 c -1.227948,1.6221 -0.777991,6.721785 1.044358,11.836481 0.519594,1.458314 1.12679,2.550765 1.417745,2.550765 0.05201,0 0.168191,0.0636 0.258185,0.141321 0.147965,0.127796 0.09908,0.14014 -0.510726,0.12898 -0.370893,-0.0068 -0.807114,-0.02868 -0.969379,-0.04866 z"
       id="path4" />
    <path
       style="fill:none;stroke:#000000;stroke-width:0.0631525px;stroke-linecap:butt;stroke-linejoin:miter;stroke-opacity:1"
       d="M 10.441135,19.044493 C 9.8951361,18.484261 10.050981,17.641955 9.7854821,16.934549 9.6322701,16.526326 8.7873265,14.228285 8.8914107,13.871726 c 0.2115304,-0.724642 1.4667133,-1.6389 1.9073523,-2.178007 0.269088,-0.32922 0.564269,-0.640187 0.774862,-1.020941 C 12.239479,9.4689071 12.385567,7.5327922 11.990859,6.1806374 11.326973,3.9063657 9.2000781,3.9798777 7.4608959,4.1387555 6.1940417,4.2544851 4.9021819,4.6423123 4.4210529,6.1806374 c -0.520549,1.6643627 0.3572278,2.9145147 1.0132809,4.2879516 0.5711073,1.195605 1.6932651,3.353598 2.7418192,4.151828 0.1942228,0.147855 0.3554177,-0.748691 0.7748625,-0.748691 0.082855,0 -0.6934909,0.977734 -0.4172337,1.293193 0.3141227,0.358697 0.4172337,-1.139572 0.4172337,-1.293193 0,-0.533955 0.8940706,1.069892 0.8940706,0.204189 0,-0.181501 0.04366,-0.369985 0,-0.544502 -0.133649,-0.534156 -1.1227578,-0.601451 -1.0132802,-0.476439"
       id="path6" />
    <path
       style="fill:#aa0000;stroke:none;stroke-width:0.0636938"
       d="M 7.8667723,14.243795 C 7.5286948,13.91289 6.9808389,13.144638 6.4970778,12.323092 6.0202147,11.513258 4.8040146,9.0844851 4.5940317,8.522673 3.898959,6.6629988 4.6489596,4.9222432 6.3651979,4.411787 7.2496613,4.1487234 9.0949241,4.0716246 9.8891881,4.2645476 c 1.5123779,0.3673498 2.2416299,1.5341842 2.2397049,3.583627 -8.63e-4,0.9189675 -0.154404,1.7526045 -0.448399,2.4345324 -0.222998,0.517254 -0.769578,1.205838 -1.645275,2.072729 l -0.6261659,0.619869 -0.318426,-0.01471 c -0.3719208,-0.01719 -0.4387249,0.110276 -0.074172,0.141512 l 0.244256,0.02093 -0.180466,0.272251 c -0.099255,0.149738 -0.2734396,0.37945 -0.3870757,0.51047 -0.1136361,0.131021 -0.252716,0.322447 -0.3090653,0.425393 -0.056346,0.102944 -0.1328966,0.186974 -0.1701044,0.186733 -0.037209,-2.7e-4 -0.1934616,-0.123581 -0.3472298,-0.274088 z"
       id="path7" />
    <path
       style="fill:none;stroke:#000000;stroke-width:0.0631525px;stroke-linecap:butt;stroke-linejoin:miter;stroke-opacity:1"
       d="M 27.905331,8.7670211 C 26.803152,8.354475 26.822426,7.6578436 26.534422,6.5890137 26.385109,6.0348885 26.188899,5.5178165 26.057584,4.9555084 25.73877,3.5903056 25.062819,2.8701802 25.938373,1.6204345 c 0.369624,-0.5275922 0.87598,-0.80986652 1.430515,-1.02094092 0.318926,-0.1213936 0.839124,-0.5772037 1.192096,-0.4764391 0.223335,0.063757 1.535542,1.17545142 1.668933,1.42931722 0.422563,0.8042068 0.623384,3.6441723 0,4.3560147 -0.135989,0.1552873 -0.340848,0.1850265 -0.476838,0.3403137 -0.23261,0.2656169 -0.482816,0.5513282 -0.715256,0.816753 -0.250749,0.2863305 -0.30462,0.688158 -0.536444,0.952878 -0.07799,0.089057 -0.625653,0.3051535 -0.655653,0.4764392 -0.01606,0.091727 0.123575,0.2138148 0.0596,0.2722508 -0.377497,0.344851 -0.357629,-0.193601 -0.357629,0.06807 0,0.783233 -0.173586,2.2759159 -0.0596,2.9266989 0.05673,0.323885 0.1669,0.789538 0.298024,1.089003 0.01986,0.04537 0.09934,0.02269 0.11921,0.06807 0.103817,0.237098 0.0596,0.248828 0.0596,-0.136125"
       id="path8" />
    <path
       style="fill:none;stroke:#000000;stroke-width:0.0631525px;stroke-linecap:butt;stroke-linejoin:miter;stroke-opacity:1"
       d="m 27.309285,8.4267072 c -0.09049,0.1470888 -0.48968,0.5031389 -0.178815,0.6806279 0.049,0.02797 0.480477,0.200031 0.536442,0.136125 0.193389,-0.220829 0.08952,-0.450753 0.119209,-0.408377 0.139927,0.199727 0.335587,0.655458 0.476839,0.816754 0.260901,0.297922 0.229347,-0.429097 0.178814,-0.544502 -0.06972,-0.159225 -0.353959,-0.336124 -0.476838,-0.476439"
       id="path9" />
    <path
       style="fill:#aa0000;stroke:none;stroke-width:0.0636938"
       d="M 27.390414,8.402657 C 27.261285,8.2958436 27.106117,8.1221523 27.045594,8.016677 26.985073,7.9112019 26.713328,7.0414628 26.441717,6.0839239 26.170107,5.1263847 25.865804,4.0826038 25.765488,3.7644105 25.653727,3.4099096 25.583149,3.0540935 25.583231,2.8455636 c 2.36e-4,-0.567867 0.341846,-1.2456431 0.81762,-1.6221403 0.232988,-0.1843725 1.379924,-0.79316452 1.848897,-0.98139272 l 0.25501,-0.1023511 0.400643,0.3049855 c 0.220354,0.167742 0.594391,0.4816475 0.831193,0.69756792 0.353457,0.3222864 0.450893,0.4550911 0.544151,0.7416743 0.223458,0.6866862 0.338983,1.9615791 0.250647,2.7660385 -0.07705,0.7016798 -0.255268,1.140503 -0.538731,1.3265036 -0.319554,0.2096825 -1.10246,1.126208 -1.252076,1.4657713 -0.18235,0.4138531 -0.280637,0.5290116 -0.61847,0.7246361 -0.159423,0.092315 -0.303367,0.2268316 -0.319878,0.2989261 -0.04109,0.1794013 -0.136267,0.1648113 -0.411823,-0.063126 z"
       id="path10" />
    <ellipse
       style="fill:#aa0000;stroke:none;stroke-width:0.374267"
       id="path5"
       cx="4.0027452"
       cy="30.954565"
       rx="1.5343858"
       ry="2.6017845" />
    <ellipse
       style="fill:#aa0000;stroke:none;stroke-width:0.274637"
       id="path11"
       cx="35.257519"
       cy="15.210433"
       rx="2.034729"
       ry="3.6691833" />
    <ellipse
       style="fill:#aa0000;stroke:none;stroke-width:0.274637"
       id="path12"
       cx="35.624435"
       cy="35.491009"
       rx="1.9346602"
       ry="2.8686342" />
    <ellipse
       style="fill:#aa0000;stroke:none;stroke-width:0.274637"
       id="path14"
       cx="5.7372684"
       cy="18.245848"
       rx="0.86726153"
       ry="1.3676046" />
    <ellipse
       style="fill:#aa0000;stroke:none;stroke-width:0.274637"
       id="path15"
       cx="0.63376802"
       cy="1.9013041"
       rx="2.3682909"
       ry="4.1028142" />
    <ellipse
       style="fill:#aa0000;stroke:none;stroke-width:0.333802"
       id="path16"
       cx="21.314619"
       cy="10.740701"
       rx="2.168154"
       ry="3.4023335" />
    <path
       style="fill:none;stroke:#000000;stroke-width:0.05;stroke-linecap:butt;stroke-linejoin:miter;stroke-dasharray:none;stroke-opacity:1"
       d="m 21.507221,14.279169 c 0.250197,1.126757 -0.284204,2.054251 -0.88108,3.123868 -0.158538,0.284105 -0.450869,0.476155 -0.585907,0.769063 -0.276144,0.835951 0.06666,-0.01913 -0.221814,0.397498 -0.03556,0.05136 0.144098,1.032052 0.0717,0.51356"
       id="path17" />
    <path
       style="fill:none;stroke:#000000;stroke-width:0.05;stroke-linecap:butt;stroke-linejoin:miter;stroke-opacity:1;stroke-dasharray:none"
       d="m 21.297942,14.17639 c -0.135658,-0.01507 -0.691208,0.326779 -0.61709,0.450309 0.02625,0.04375 0.117856,0.04417 0.150103,0.05003 0.267806,0.04869 0.43551,-0.02148 0.600411,-0.233493 0.02666,-0.03427 0.06966,-0.05888 0.08339,-0.100069 0.0053,-0.01582 -0.01179,-0.03824 0,-0.05003 0.03107,-0.03107 0.09411,0.188228 0.100069,0.200137 0.05308,0.106156 0.271324,0.29685 0.400274,0.200137 0.05748,-0.04311 0.05004,-0.185923 0.05004,-0.250171 0,-0.415932 -0.399491,-0.400275 -0.717159,-0.400275"
       id="path18" />
    <ellipse
       style="fill:#aa0000;stroke-width:0.0499999"
       id="path13"
       cx="24.183254"
       cy="40.727936"
       rx="2.1014414"
       ry="2.3015788" />
    <ellipse
       style="fill:#aa0000;stroke-width:0.0499999"
       id="path19"
       cx="9.8067265"
       cy="40.394371"
       rx="1.4676734"
       ry="2.1681538" />
  </g>
</svg>
